<?xml version="1.0" standalone="no"?>
<!DOCTYPE svg PUBLIC "-//W3C//DTD SVG 20010904//EN"
 "http://www.w3.org/TR/2001/REC-SVG-20010904/DTD/svg10.dtd">
<svg version="1.0" xmlns="http://www.w3.org/2000/svg"
 width="152" height="64" viewBox="0 0 480.000000 270.000000"
 preserveAspectRatio="xMidYMid meet">

<g transform="translate(0.000000,270.000000) scale(0.100000,-0.100000)"
fill="#000000" stroke="none">
<path d="M0 1350 l0 -1350 2400 0 2400 0 0 1350 0 1350 -2400 0 -2400 0 0
-1350z m2359 714 c7 -29 16 -56 21 -59 4 -3 14 21 22 53 11 46 18 58 36 60 22
3 23 2 20 -84 -2 -57 -7 -89 -15 -91 -8 -3 -13 14 -15 54 l-3 58 -14 -45 c-17
-54 -38 -82 -44 -59 -3 8 -11 34 -18 59 l-14 45 -3 -57 c-2 -43 -7 -58 -17
-58 -12 0 -15 18 -15 88 0 49 3 91 6 94 3 3 13 4 23 1 13 -3 22 -22 30 -59z
m-121 9 c5 -16 6 -37 2 -48 -5 -13 -1 -29 11 -47 23 -32 24 -38 4 -38 -8 0
-22 11 -31 25 -25 38 -44 33 -37 -10 4 -27 2 -35 -9 -35 -10 0 -20 24 -31 73
-10 39 -17 77 -17 84 0 13 21 20 67 22 25 1 33 -4 41 -26z m430 -13 c35 -22
43 -58 17 -80 -9 -7 -13 -20 -10 -28 7 -18 -21 -62 -39 -62 -7 0 -30 7 -49 15
l-36 15 20 47 c11 27 27 63 34 81 16 38 20 38 63 12z m-578 -62 c17 -34 30
-70 30 -80 0 -24 -47 -55 -67 -42 -21 13 -12 30 15 26 30 -4 28 16 -8 87 -27
55 -29 71 -8 71 4 0 22 -28 38 -62z m734 -23 c35 -32 34 -69 -1 -92 -36 -22
-43 -33 -43 -61 0 -15 -5 -22 -12 -19 -8 3 -12 19 -10 46 3 46 -10 53 -37 19
-10 -12 -23 -18 -29 -14 -13 8 75 145 94 146 6 0 23 -11 38 -25z m-344 -120
c192 -51 331 -189 385 -382 23 -83 17 -224 -13 -308 -31 -84 -106 -190 -169
-237 -29 -23 -56 -38 -60 -34 -3 3 -9 26 -13 51 l-7 45 32 0 c40 0 65 27 72
78 7 55 -13 108 -53 138 -25 19 -34 34 -34 55 0 16 4 29 10 29 11 0 26 47 21
68 -6 31 23 69 58 78 47 12 76 60 66 110 -5 27 -17 43 -51 67 -24 17 -44 38
-44 48 0 28 -38 67 -85 85 -36 13 -62 16 -121 11 -73 -7 -76 -6 -113 24 -78
62 -170 68 -220 15 -13 -14 -29 -22 -37 -19 -21 8 -8 21 44 45 103 47 230 60
332 33z m480 -5 c30 -30 24 -58 -19 -101 -43 -43 -82 -51 -113 -22 -35 31 -19
78 40 118 44 30 66 31 92 5z m-950 -25 c11 -13 7 -15 -26 -15 -36 1 -38 2 -20
15 25 19 31 19 46 0z m286 -24 c58 -26 64 -41 17 -42 -30 0 -34 -2 -18 -9 11
-5 78 -9 148 -9 74 -1 138 -6 150 -12 69 -36 84 -85 46 -148 -11 -18 -18 -36
-15 -38 3 -3 15 11 27 31 25 43 37 44 78 10 37 -31 41 -69 10 -108 -30 -38
-61 -34 -108 16 -22 24 -42 40 -46 37 -3 -4 11 -23 30 -42 24 -24 35 -44 33
-58 -5 -35 -22 -33 -69 7 -96 81 -214 109 -329 80 -69 -18 -80 -14 -80 32 0
18 10 28 47 44 38 17 59 19 117 15 39 -3 82 -9 96 -13 21 -5 23 -4 12 7 -19
21 -188 25 -234 6 -33 -14 -38 -14 -51 1 -46 53 -50 115 -10 162 44 53 83 61
149 31z m-218 -32 c16 -10 22 -24 22 -52 0 -21 7 -54 15 -74 8 -19 15 -39 15
-44 0 -6 -75 -8 -172 -7 l-173 3 4 30 c7 60 55 120 121 150 41 18 135 15 168
-6z m990 -82 c24 -48 22 -79 -3 -44 -16 22 -38 17 -101 -19 -48 -28 -54 -29
-54 -9 0 8 27 29 61 45 55 28 60 34 54 57 -10 40 15 23 43 -30z m48 -136 c-4
-6 -15 -11 -24 -11 -33 0 -44 -15 -32 -44 8 -22 14 -26 33 -21 36 11 42 11 42
-4 0 -13 -106 -50 -147 -51 -34 0 -18 28 18 35 31 5 35 9 30 28 -3 12 -6 25
-6 30 0 4 -18 4 -40 1 -31 -5 -40 -3 -40 8 0 9 26 21 78 35 74 19 102 17 88
-6z m-1116 9 c0 -6 -57 -10 -150 -10 -93 0 -150 4 -150 10 0 6 57 10 150 10
93 0 150 -4 150 -10z m160 0 c0 -5 -22 -10 -49 -10 -28 0 -53 5 -56 10 -4 6
15 10 49 10 31 0 56 -4 56 -10z m-102 -55 c28 -71 28 -77 -8 -97 l-30 -17 -24
48 c-14 26 -32 53 -40 60 -25 21 -19 31 18 31 21 0 36 6 40 15 10 26 20 16 44
-40z m-113 -27 c15 -18 35 -48 44 -66 15 -32 14 -35 -3 -47 -25 -19 -14 -60
21 -77 16 -8 41 -39 62 -78 36 -65 36 -66 36 -187 0 -67 -3 -125 -7 -129 -9
-9 -62 32 -121 93 -55 57 -100 143 -123 233 -20 77 -14 216 10 274 13 32 18
36 35 27 10 -6 31 -25 46 -43z m215 33 c14 -27 13 -154 -1 -146 -6 4 -8 13 -5
21 9 24 -12 64 -34 64 -13 0 -25 12 -35 36 -8 20 -15 38 -15 40 0 2 18 4 40 4
29 0 42 -5 50 -19z m214 -37 c17 -15 31 -32 31 -38 0 -6 10 -12 22 -14 17 -3
21 0 17 12 -9 22 9 20 31 -4 10 -11 26 -22 36 -25 11 -4 19 -15 19 -25 0 -14
-7 -18 -27 -17 -23 2 -29 -2 -31 -25 -2 -18 -11 -28 -26 -32 -29 -7 -51 -56
-42 -96 5 -30 5 -30 -42 -30 -104 0 -162 68 -170 198 l-5 75 64 -6 c51 -5 61
-4 47 5 -15 11 -14 14 10 29 35 22 29 23 66 -7z m-139 6 c3 -5 -3 -10 -15 -10
-12 0 -18 5 -15 10 3 6 10 10 15 10 5 0 12 -4 15 -10z m-121 -71 c-19 -21 -19
-22 4 -15 36 12 26 -1 -37 -44 -61 -41 -105 -55 -63 -21 28 24 29 35 1 21 -11
-7 -23 -9 -26 -6 -6 6 115 86 130 86 6 0 2 -10 -9 -21z m1036 -80 c0 -27 -4
-49 -10 -49 -5 0 -10 16 -10 35 0 31 -3 35 -25 35 -20 0 -25 -5 -25 -24 0 -35
-18 -42 -22 -9 -2 22 -9 29 -30 31 -26 3 -28 1 -28 -32 0 -20 -4 -36 -10 -36
-5 0 -10 22 -10 50 l0 49 78 3 c42 2 80 2 85 0 4 -2 7 -25 7 -53z m-967 -37
c25 -43 52 -84 60 -90 13 -11 13 -16 0 -42 -23 -46 -36 -157 -30 -247 7 -92 5
-93 -53 -65 l-35 17 0 136 0 135 -40 79 c-22 44 -41 83 -43 86 -2 5 85 69 94
69 1 0 23 -35 47 -78z m446 34 c-10 -21 -19 -26 -38 -24 -17 2 -27 10 -29 23
-3 16 -1 18 9 8 16 -16 33 -17 24 -2 -9 13 27 41 38 30 4 -4 2 -20 -4 -35z
m-119 -14 c0 -7 -4 -10 -10 -7 -5 3 -10 16 -10 28 0 18 2 19 10 7 5 -8 10 -21
10 -28z m27 6 c-3 -8 -6 -5 -6 6 -1 11 2 17 5 13 3 -3 4 -12 1 -19z m-30 -69
c3 -16 9 -29 14 -29 17 0 9 -29 -10 -39 -15 -8 -20 -7 -23 7 -3 9 -2 26 2 37
10 26 -6 45 -36 45 -28 0 -32 17 -6 23 28 6 52 -12 59 -44z m-50 -48 c10 -6
13 -11 7 -11 -22 0 -58 36 -49 50 6 10 10 8 16 -7 4 -12 16 -26 26 -32z m14
36 c-1 -12 -15 -9 -19 4 -3 6 1 10 8 8 6 -3 11 -8 11 -12z m628 -8 c48 -10 49
-10 41 -42 -4 -18 -11 -40 -15 -49 -9 -23 -58 -24 -80 -2 -12 12 -26 15 -56
10 -37 -6 -39 -5 -29 13 5 11 22 21 37 23 38 4 41 27 4 34 -18 4 -31 13 -31
22 0 15 23 14 129 -9z m-534 1 c-3 -5 -10 -10 -16 -10 -5 0 -9 5 -9 10 0 6 7
10 16 10 8 0 12 -4 9 -10z m19 -21 c-3 -6 -2 -14 5 -18 7 -4 -6 -23 -34 -51
-24 -24 -48 -40 -52 -36 -4 4 0 12 10 17 9 6 17 15 17 21 0 9 -3 9 -12 0 -7
-7 -17 -12 -22 -12 -6 0 10 20 34 45 41 42 71 60 54 34z m92 -61 c19 -37 18
-97 -3 -120 -27 -30 -62 -22 -105 23 l-40 41 33 34 c18 19 37 34 42 34 5 0 22
-14 38 -31 16 -17 29 -26 29 -19 0 7 -13 24 -28 38 -16 16 -26 35 -24 45 4 18
4 18 24 0 11 -10 26 -30 34 -45z m-201 -5 c-7 -29 10 -63 33 -63 9 0 29 -15
44 -34 33 -42 58 -157 38 -181 -24 -29 -137 -55 -234 -55 -129 0 -129 0 -130
136 0 60 6 132 13 161 15 59 10 57 154 59 88 1 88 1 82 -23z"/>
<path d="M2166 2072 c-10 -17 7 -52 24 -52 22 0 30 19 18 43 -9 18 -33 23 -42
9z"/>
<path d="M2629 2029 c-7 -15 -8 -24 -1 -31 15 -15 42 -2 42 21 0 28 -28 34
-41 10z"/>
<path d="M2600 1960 c-13 -24 -5 -40 20 -40 22 0 34 28 19 46 -16 19 -26 17
-39 -6z"/>
<path d="M2770 1940 c-14 -26 -1 -44 26 -38 13 2 19 12 19 28 0 32 -30 38 -45
10z"/>
<path d="M2872 1809 c-35 -34 -39 -50 -18 -68 10 -8 21 -6 46 12 41 27 55 49
47 71 -10 25 -40 19 -75 -15z"/>
<path d="M2250 1391 c0 -20 6 -46 14 -56 12 -16 16 -17 30 -6 22 18 22 63 0
54 -13 -5 -15 -2 -10 14 5 15 1 22 -14 26 -17 4 -20 0 -20 -32z"/>
<path d="M2387 1373 c-13 -12 -7 -22 8 -17 8 4 22 1 30 -6 18 -15 20 1 3 18
-13 13 -31 16 -41 5z"/>
<path d="M2320 1293 c0 -29 24 -56 46 -51 14 2 19 12 19 33 0 27 -4 30 -32 33
-27 3 -33 0 -33 -15z m53 -10 c-7 -2 -19 -2 -25 0 -7 3 -2 5 12 5 14 0 19 -2
13 -5z"/>
<path d="M3055 1190 c-9 -15 13 -40 35 -40 22 0 33 37 13 44 -22 9 -41 7 -48
-4z"/>
<path d="M2267 1113 c-15 -14 -7 -43 12 -43 23 0 34 23 18 39 -13 13 -21 14
-30 4z m23 -23 c0 -5 -4 -10 -10 -10 -5 0 -10 5 -10 10 0 6 5 10 10 10 6 0 10
-4 10 -10z"/>
<path d="M2247 1006 c-7 -18 1 -26 25 -26 11 0 18 7 18 20 0 23 -35 28 -43 6z
m33 -6 c0 -5 -4 -10 -10 -10 -5 0 -10 5 -10 10 0 6 5 10 10 10 6 0 10 -4 10
-10z"/>
<path d="M2257 923 c-15 -14 -7 -43 12 -43 26 0 36 17 21 35 -14 16 -23 19
-33 8z m23 -23 c0 -5 -4 -10 -10 -10 -5 0 -10 5 -10 10 0 6 5 10 10 10 6 0 10
-4 10 -10z"/>
</g>
</svg>
