<?xml version="1.0" encoding="UTF-8"?>
<!DOCTYPE svg PUBLIC "-//W3C//DTD SVG 1.1//EN" "http://www.w3.org/Graphics/SVG/1.1/DTD/svg11.dtd">
<svg xmlns="http://www.w3.org/2000/svg" version="1.1" width="152px" height="64px" style="shape-rendering:geometricPrecision; text-rendering:geometricPrecision; image-rendering:optimizeQuality; fill-rule:evenodd; clip-rule:evenodd" xmlns:xlink="http://www.w3.org/1999/xlink">
<g><path style="opacity:0.858" fill="#f24d4c" d="M 49.5,-0.5 C 51.8333,-0.5 54.1667,-0.5 56.5,-0.5C 59.5542,3.56238 58.8875,6.89572 54.5,9.5C 54.1788,7.95186 53.1788,7.28519 51.5,7.5C 47.7691,5.42405 47.1024,2.75739 49.5,-0.5 Z"/></g>
<g><path style="opacity:0.118" fill="#f14e4f" d="M 94.5,13.5 C 93.4489,14.2223 92.7822,15.2223 92.5,16.5C 92.5654,16.9382 92.3988,17.2716 92,17.5C 91.0922,15.5614 89.5922,14.5614 87.5,14.5C 87.7373,15.791 87.404,16.791 86.5,17.5C 86.8204,14.1016 86.487,10.7683 85.5,7.5C 84.8326,10.6417 84.166,13.6417 83.5,16.5C 82.8501,16.8039 82.1835,17.1373 81.5,17.5C 80.8302,19.2914 80.1635,20.9581 79.5,22.5C 79.5,20.1667 79.5,17.8333 79.5,15.5C 82.8373,13.5477 84.1706,10.5477 83.5,6.5C 84.8333,6.5 86.1667,6.5 87.5,6.5C 87.5,8.16667 87.5,9.83333 87.5,11.5C 90.0758,11.4679 92.4091,12.1346 94.5,13.5 Z"/></g>
<g><path style="opacity:0.004" fill="#fedcdc" d="M -0.5,8.5 C -0.5,8.16667 -0.5,7.83333 -0.5,7.5C 1.17876,7.28519 2.17876,7.95186 2.5,9.5C 1.60895,8.89022 0.608953,8.55688 -0.5,8.5 Z"/></g>
<g><path style="opacity:0.379" fill="#ef3d3f" d="M 51.5,7.5 C 53.1788,7.28519 54.1788,7.95186 54.5,9.5C 52.8828,10.038 51.2161,10.3713 49.5,10.5C 49.5,14.8333 49.5,19.1667 49.5,23.5C 48.6862,25.631 48.1862,27.9644 48,30.5C 47.6667,25.1667 47.3333,19.8333 47,14.5C 46.7679,13.2625 46.2679,12.2625 45.5,11.5C 41.5,10.8333 39.8333,12.5 40.5,16.5C 39.5,16.5 38.5,16.5 37.5,16.5C 37.5,13.8333 37.5,11.1667 37.5,8.5C 38.9305,8.42082 40.2638,8.75415 41.5,9.5C 44.757,8.4486 48.0903,7.78193 51.5,7.5 Z"/></g>
<g><path style="opacity:0.373" fill="#f2565a" d="M 137.5,13.5 C 136.5,14.8333 135.5,14.8333 134.5,13.5C 131.672,9.98151 132.339,7.31484 136.5,5.5C 138.888,5.71191 139.888,7.04524 139.5,9.5C 139.197,11.1143 138.53,12.4477 137.5,13.5 Z"/></g>
<g><path style="opacity:0.929" fill="#f03b3a" d="M -0.5,4.5 C 2.5,4.5 5.5,4.5 8.5,4.5C 7.22446,7.33563 6.55779,10.3356 6.5,13.5C 5.67618,17.3123 5.17618,21.3123 5,25.5C 4.32924,26.2524 3.4959,26.5858 2.5,26.5C 2.5,20.8333 2.5,15.1667 2.5,9.5C 2.17876,7.95186 1.17876,7.28519 -0.5,7.5C -0.5,6.5 -0.5,5.5 -0.5,4.5 Z"/></g>
<g><path style="opacity:0.871" fill="#f25250" d="M 121.5,14.5 C 121.5,16.1667 121.5,17.8333 121.5,19.5C 120.527,18.016 119.193,17.516 117.5,18C 119.868,23.4968 118.868,28.4968 114.5,33C 110.978,35.199 107.978,34.699 105.5,31.5C 106.239,31.631 106.906,31.4643 107.5,31C 106.62,29.6439 106.286,28.1439 106.5,26.5C 107.241,29.7466 109.241,31.2466 112.5,31C 114.478,27.0669 114.978,22.9002 114,18.5C 112.603,22.9751 110.103,23.6418 106.5,20.5C 106.918,19.7784 107.584,19.2784 108.5,19C 107.167,18 107.167,17 108.5,16C 107.906,15.5357 107.239,15.369 106.5,15.5C 107.406,14.0351 108.739,13.0351 110.5,12.5C 112.655,13.9051 114.821,15.2385 117,16.5C 118.11,14.9632 119.61,14.2965 121.5,14.5 Z"/></g>
<g><path style="opacity:0.765" fill="#f04548" d="M 21.5,12.5 C 22.0998,13.8999 23.0998,14.8999 24.5,15.5C 21.075,15.3668 20.7417,16.0335 23.5,17.5C 23.5,18.8333 23.5,20.1667 23.5,21.5C 22.0679,23.6469 20.2345,23.9802 18,22.5C 16.7549,18.2353 17.9215,14.902 21.5,12.5 Z"/></g>
<g><path style="opacity:0.933" fill="#f14646" d="M 15.5,33.5 C 14.9344,31.9217 13.9344,30.5884 12.5,29.5C 11.6143,30.325 11.281,31.325 11.5,32.5C 9.90097,32.7678 8.56764,32.4345 7.5,31.5C 8.55198,31.6495 9.55198,31.4828 10.5,31C 8.64041,26.701 9.97374,24.701 14.5,25C 15.0465,25.9246 15.7132,26.7579 16.5,27.5C 18.637,26.1319 20.9703,25.1319 23.5,24.5C 24.6527,23.3132 24.6527,22.3132 23.5,21.5C 23.5,20.1667 23.5,18.8333 23.5,17.5C 24.3382,17.1583 24.6716,16.4916 24.5,15.5C 23.0998,14.8999 22.0998,13.8999 21.5,12.5C 23.6109,11.0319 25.4443,11.3652 27,13.5C 28.4568,16.366 28.7901,19.366 28,22.5C 26.4001,26.4668 24.9001,30.4668 23.5,34.5C 20.9639,34.1556 18.7972,33.1556 17,31.5C 16.7216,32.4158 16.2216,33.0825 15.5,33.5 Z M 20.5,28.5 C 22.337,28.6395 22.6704,29.3061 21.5,30.5C 20.7025,30.0431 20.3691,29.3764 20.5,28.5 Z"/></g>
<g><path style="opacity:0.826" fill="#ee3639" d="M 96.5,24.5 C 95.6909,26.2922 95.1909,28.2922 95,30.5C 94.501,26.1794 94.3343,21.8461 94.5,17.5C 94.1583,16.6618 93.4916,16.3284 92.5,16.5C 92.7822,15.2223 93.4489,14.2223 94.5,13.5C 94.3016,11.4247 94.1349,9.42471 94,7.5C 95.3561,6.61983 96.8561,6.28649 98.5,6.5C 98.5,8.16667 98.5,9.83333 98.5,11.5C 104.893,12.4625 104.727,13.7959 98,15.5C 97.4978,18.5131 96.9978,21.5131 96.5,24.5 Z"/></g>
<g><path style="opacity:0.686" fill="#ef3e40" d="M 151.5,13.5 C 151.5,16.1667 151.5,18.8333 151.5,21.5C 149.554,20.9653 148.554,19.632 148.5,17.5C 148.157,15.7748 147.157,15.2748 145.5,16C 146.416,16.2784 147.082,16.7784 147.5,17.5C 147.649,18.552 147.483,19.552 147,20.5C 145.927,19.7203 144.76,19.887 143.5,21C 144.756,21.4169 145.423,22.2502 145.5,23.5C 144.178,23.67 143.011,23.3366 142,22.5C 140.611,16.9423 142.611,13.2756 148,11.5C 149.303,11.9783 150.469,12.645 151.5,13.5 Z M 148.5,17.5 C 148.167,17.5 147.833,17.5 147.5,17.5C 147.082,16.7784 146.416,16.2784 145.5,16C 147.157,15.2748 148.157,15.7748 148.5,17.5 Z"/></g>
<g><path style="opacity:0.667" fill="#f14e50" d="M 68.5,19.5 C 66.5577,23.653 63.8911,24.3196 60.5,21.5C 59.6829,19.0314 59.1829,16.3647 59,13.5C 58.3292,14.2524 57.4959,14.5858 56.5,14.5C 56.8656,13.3054 57.699,12.6387 59,12.5C 61.3517,12.7346 63.8517,12.9012 66.5,13C 67.6687,15.0065 68.3354,17.1732 68.5,19.5 Z"/></g>
<g><path style="opacity:0.678" fill="#f14a4b" d="M 79.5,15.5 C 79.5,17.8333 79.5,20.1667 79.5,22.5C 78.3703,26.5559 77.0369,30.5559 75.5,34.5C 73.556,33.8108 71.556,33.3108 69.5,33C 67.6279,27.6783 69.6279,24.845 75.5,24.5C 76.4279,23.2322 76.5946,21.8989 76,20.5C 74.6205,23.4808 72.4538,24.1475 69.5,22.5C 68.8728,21.5832 68.5394,20.5832 68.5,19.5C 69.4193,15.7 71.7527,13.0333 75.5,11.5C 77.8083,11.9655 79.1416,13.2988 79.5,15.5 Z M 72.5,28.5 C 74.337,28.6395 74.6704,29.3061 73.5,30.5C 72.7025,30.0431 72.3691,29.3764 72.5,28.5 Z"/></g>
<g><path style="opacity:0.51" fill="#ef373a" d="M 106.5,15.5 C 107.239,15.369 107.906,15.5357 108.5,16C 107.167,17 107.167,18 108.5,19C 107.584,19.2784 106.918,19.7784 106.5,20.5C 106.5,22.5 106.5,24.5 106.5,26.5C 106.286,28.1439 106.62,29.6439 107.5,31C 106.906,31.4643 106.239,31.631 105.5,31.5C 104.308,29.8869 103.308,28.2202 102.5,26.5C 102.278,22.1576 103.611,18.4909 106.5,15.5 Z"/></g>
<g><path style="opacity:0.706" fill="#f0484b" d="M 131.5,14.5 C 131.328,15.4916 131.662,16.1583 132.5,16.5C 132.778,21.9032 130.445,23.9032 125.5,22.5C 125.672,21.5084 125.338,20.8417 124.5,20.5C 124.379,17.8952 123.379,15.8952 121.5,14.5C 122.694,11.9824 123.86,11.9824 125,14.5C 127.293,11.8661 129.46,11.8661 131.5,14.5 Z"/></g>
<g><path style="opacity:0.753" fill="#ee3034" d="M 86.5,17.5 C 85.8885,20.696 85.8885,23.696 86.5,26.5C 87.8333,27.5 87.8333,28.5 86.5,29.5C 86.1667,29.5 85.8333,29.5 85.5,29.5C 84.8826,29.6107 84.3826,29.944 84,30.5C 83.5014,26.8484 83.3347,23.1817 83.5,19.5C 83.5,18.5 83.5,17.5 83.5,16.5C 84.166,13.6417 84.8326,10.6417 85.5,7.5C 86.487,10.7683 86.8204,14.1016 86.5,17.5 Z"/></g>
<g><path style="opacity:0.125" fill="#f04649" d="M 45.5,11.5 C 46.2679,12.2625 46.7679,13.2625 47,14.5C 47.3333,19.8333 47.6667,25.1667 48,30.5C 48.1862,27.9644 48.6862,25.631 49.5,23.5C 49.3359,26.1873 49.5026,28.854 50,31.5C 51.3561,30.6198 52.8561,30.2865 54.5,30.5C 54.5,31.5 54.5,32.5 54.5,33.5C 51.1401,33.6159 47.8067,33.9492 44.5,34.5C 45.5324,31.2943 46.199,27.961 46.5,24.5C 46.2136,20.1562 45.8802,15.8228 45.5,11.5 Z"/></g>
<g><path style="opacity:0.384" fill="#f04344" d="M 60.5,21.5 C 60.1826,24.5719 60.5159,27.5719 61.5,30.5C 65.4396,29.1636 66.1062,29.9969 63.5,33C 61.2222,33.9862 58.8889,34.8195 56.5,35.5C 55.6143,34.675 55.281,33.675 55.5,32.5C 56.5,32.5 57.5,32.5 58.5,32.5C 57.8333,27.5 57.1667,22.5 56.5,17.5C 52.69,16.7542 52.69,15.7542 56.5,14.5C 57.4959,14.5858 58.3292,14.2524 59,13.5C 59.1829,16.3647 59.6829,19.0314 60.5,21.5 Z"/></g>
<g><path style="opacity:0.702" fill="#f04647" d="M 147.5,17.5 C 147.833,17.5 148.167,17.5 148.5,17.5C 148.554,19.632 149.554,20.9653 151.5,21.5C 151.5,22.8333 151.5,24.1667 151.5,25.5C 149.801,28.2371 148.467,31.2371 147.5,34.5C 145.929,33.6906 144.262,33.3573 142.5,33.5C 141.659,31.6208 141.325,29.6208 141.5,27.5C 143.116,26.0108 145.116,25.0108 147.5,24.5C 148.823,20.8391 148.157,20.5057 145.5,23.5C 145.423,22.2502 144.756,21.4169 143.5,21C 144.76,19.887 145.927,19.7203 147,20.5C 147.483,19.552 147.649,18.552 147.5,17.5 Z M 144.5,28.5 C 146.337,28.6395 146.67,29.3061 145.5,30.5C 144.702,30.0431 144.369,29.3764 144.5,28.5 Z"/></g>
<g><path style="opacity:0.698" fill="#f04143" d="M 6.5,13.5 C 6.70219,18.7043 6.36886,23.871 5.5,29C 5.68423,30.3756 6.35089,31.2089 7.5,31.5C 8.56764,32.4345 9.90097,32.7678 11.5,32.5C 11.281,31.325 11.6143,30.325 12.5,29.5C 13.9344,30.5884 14.9344,31.9217 15.5,33.5C 15.0377,34.8799 14.0377,35.5466 12.5,35.5C 8.08099,34.1377 3.74765,33.8044 -0.5,34.5C -0.5,33.5 -0.5,32.5 -0.5,31.5C 0.5,31.5 1.5,31.5 2.5,31.5C 2.5,29.8333 2.5,28.1667 2.5,26.5C 3.4959,26.5858 4.32924,26.2524 5,25.5C 5.17618,21.3123 5.67618,17.3123 6.5,13.5 Z"/></g>
<g><path style="opacity:0.694" fill="#f04445" d="M 134.5,13.5 C 135.5,14.8333 136.5,14.8333 137.5,13.5C 138.376,13.3691 139.043,13.7025 139.5,14.5C 137.875,20.0387 137.208,25.7054 137.5,31.5C 138.5,31.5 139.5,31.5 140.5,31.5C 140.232,29.901 140.566,28.5676 141.5,27.5C 141.325,29.6208 141.659,31.6208 142.5,33.5C 139.207,34.7505 135.874,34.7505 132.5,33.5C 133.732,30.6996 134.399,27.6996 134.5,24.5C 134.478,21.4098 133.812,18.7432 132.5,16.5C 131.662,16.1583 131.328,15.4916 131.5,14.5C 132.391,13.8902 133.391,13.5569 134.5,13.5 Z"/></g>
<g><path style="opacity:0.568" fill="#f04144" d="M 121.5,14.5 C 123.379,15.8952 124.379,17.8952 124.5,20.5C 124.328,21.4916 124.662,22.1583 125.5,22.5C 125.187,25.2469 125.52,27.9135 126.5,30.5C 127.863,29.1207 128.863,29.2874 129.5,31C 127.176,33.4127 124.342,34.9127 121,35.5C 118.952,33.494 119.452,32.494 122.5,32.5C 122.414,28.1434 122.08,23.81 121.5,19.5C 121.5,17.8333 121.5,16.1667 121.5,14.5 Z"/></g>
<g><path style="opacity:0.549" fill="#f25153" d="M 83.5,19.5 C 83.3347,23.1817 83.5014,26.8484 84,30.5C 84.3826,29.944 84.8826,29.6107 85.5,29.5C 85.8333,30.8333 86.1667,30.8333 86.5,29.5C 87.8333,28.5 87.8333,27.5 86.5,26.5C 89.0681,24.0761 91.0681,24.7427 92.5,28.5C 90.9132,35.0183 87.7465,36.0183 83,31.5C 82.1881,27.3112 82.3547,23.3112 83.5,19.5 Z"/></g>
<g><path style="opacity:0.522" fill="#f14c4e" d="M 94.5,17.5 C 94.3343,21.8461 94.501,26.1794 95,30.5C 95.1909,28.2922 95.6909,26.2922 96.5,24.5C 98.6408,23.9338 100.641,24.6005 102.5,26.5C 103.348,32.9331 100.848,35.2664 95,33.5C 93.2524,28.0994 93.0858,22.7661 94.5,17.5 Z M 96.5,29.5 C 97.4734,29.9867 98.4734,30.4867 99.5,31C 97.8425,31.7252 96.8425,31.2252 96.5,29.5 Z"/></g>
<g><path style="opacity:0.275" fill="#9b2126" d="M 100.5,37.5 C 117.5,37.5 134.5,37.5 151.5,37.5C 151.5,37.8333 151.5,38.1667 151.5,38.5C 134.833,38.5 118.167,38.5 101.5,38.5C 101.5,39.5 101.5,40.5 101.5,41.5C 118.167,41.5 134.833,41.5 151.5,41.5C 151.5,41.8333 151.5,42.1667 151.5,42.5C 134.5,42.5 117.5,42.5 100.5,42.5C 100.5,41.8333 100.5,41.1667 100.5,40.5C 100.5,39.8333 100.5,39.1667 100.5,38.5C 100.5,38.1667 100.5,37.8333 100.5,37.5 Z"/></g>
<g><path style="opacity:0.939" fill="#e81a23" d="M 151.5,38.5 C 151.5,39.5 151.5,40.5 151.5,41.5C 134.833,41.5 118.167,41.5 101.5,41.5C 101.5,40.5 101.5,39.5 101.5,38.5C 118.167,38.5 134.833,38.5 151.5,38.5 Z"/></g>
<g><path style="opacity:1" fill="#f9f9f9" d="M 100.5,38.5 C 100.5,39.1667 100.5,39.8333 100.5,40.5C 35.1667,39.8333 35.1667,39.1667 100.5,38.5 Z"/></g>
<g><path style="opacity:0.914" fill="#0e8747" d="M -0.5,37.5 C 16.5,37.5 33.5,37.5 50.5,37.5C 50.5,39.1667 50.5,40.8333 50.5,42.5C 33.5,42.5 16.5,42.5 -0.5,42.5C -0.5,40.8333 -0.5,39.1667 -0.5,37.5 Z"/></g>
<g><path style="opacity:1" fill="#00a551" d="M 0.5,38.5 C 16.8469,38.1672 33.1803,38.5006 49.5,39.5C 41.3333,39.8333 33.1667,40.1667 25,40.5C 16.4716,40.4979 8.30491,39.8312 0.5,38.5 Z"/></g>
<g><path style="opacity:0.914" fill="#d3d3d3" d="M 50.5,37.5 C 67.1667,37.5 83.8333,37.5 100.5,37.5C 100.5,37.8333 100.5,38.1667 100.5,38.5C 35.1667,39.1667 35.1667,39.8333 100.5,40.5C 100.5,41.1667 100.5,41.8333 100.5,42.5C 83.8333,42.5 67.1667,42.5 50.5,42.5C 50.5,40.8333 50.5,39.1667 50.5,37.5 Z"/></g>
<g><path style="opacity:0.451" fill="#f15358" d="M -0.5,51.5 C -0.5,49.5 -0.5,47.5 -0.5,45.5C 3.01396,43.6682 4.51396,44.6682 4,48.5C 3.10723,47.2888 2.2739,47.2888 1.5,48.5C 2.32496,49.3857 3.32496,49.719 4.5,49.5C 4.5,50.5 4.5,51.5 4.5,52.5C 2.70848,52.634 1.04181,52.3007 -0.5,51.5 Z"/></g>
<g><path style="opacity:0.498" fill="#f2585a" d="M 25.5,44.5 C 26.8699,44.8565 27.8699,45.6898 28.5,47C 27.6161,48.098 26.6161,48.598 25.5,48.5C 29.2167,49.693 29.3834,51.0263 26,52.5C 21.592,50.1807 21.4253,47.514 25.5,44.5 Z"/></g>
<g><path style="opacity:0.08" fill="#ef3c41" d="M 109.5,45.5 C 110.5,45.5 111.5,45.5 112.5,45.5C 112.5,47.8333 112.5,50.1667 112.5,52.5C 111.5,52.5 110.5,52.5 109.5,52.5C 109.5,50.1667 109.5,47.8333 109.5,45.5 Z"/></g>
<g><path style="opacity:0.111" fill="#ee3b40" d="M 34.5,45.5 C 35.5,45.5 36.5,45.5 37.5,45.5C 37.8076,47.924 37.4742,50.2573 36.5,52.5C 35.914,52.2907 35.414,51.9574 35,51.5C 34.5045,49.5273 34.3379,47.5273 34.5,45.5 Z"/></g>
<g><path style="opacity:0.503" fill="#f0555a" d="M 72.5,45.5 C 72.9746,48.0821 72.3079,50.0821 70.5,51.5C 70.0254,48.9179 70.6921,46.9179 72.5,45.5 Z"/></g>
<g><path style="opacity:0.031" fill="#f8a9ac" d="M 72.5,45.5 C 73.4682,47.6074 73.8016,49.9407 73.5,52.5C 72.209,52.7373 71.209,52.404 70.5,51.5C 72.3079,50.0821 72.9746,48.0821 72.5,45.5 Z"/></g>
<g><path style="opacity:0.004" fill="#f0454a" d="M 78.5,45.5 C 80.288,45.2148 81.9547,45.5481 83.5,46.5C 82.1735,48.3113 81.1735,50.3113 80.5,52.5C 79.5793,50.2235 78.9126,47.8901 78.5,45.5 Z"/></g>
<g><path style="opacity:0.289" fill="#f25559" d="M 43.5,45.5 C 45.1238,45.3601 46.2904,46.0267 47,47.5C 47.3076,46.6919 47.8076,46.0253 48.5,45.5C 49.8333,47.8333 49.8333,50.1667 48.5,52.5C 46.9974,51.9478 45.3307,51.9478 43.5,52.5C 43.5,50.1667 43.5,47.8333 43.5,45.5 Z"/></g>
<g><path style="opacity:0.518" fill="#f26266" d="M 57.5,45.5 C 60.443,47.0482 61.443,49.3815 60.5,52.5C 59.1667,51.1667 57.8333,51.1667 56.5,52.5C 56.1667,52 55.8333,51.5 55.5,51C 56.3195,49.1997 56.9862,47.3664 57.5,45.5 Z"/></g>
<g><path style="opacity:0.356" fill="#f15154" d="M 130.5,45.5 C 131.94,46.3629 133.274,46.3629 134.5,45.5C 135.833,47.8333 135.833,50.1667 134.5,52.5C 133.808,51.9747 133.308,51.3081 133,50.5C 132.692,51.3081 132.192,51.9747 131.5,52.5C 130.526,50.2573 130.192,47.924 130.5,45.5 Z"/></g>
<g><path style="opacity:0.5" fill="#f26165" d="M 143.5,45.5 C 144.496,45.4142 145.329,45.7476 146,46.5C 147.205,48.5342 147.372,50.5342 146.5,52.5C 145.808,51.9747 145.308,51.3081 145,50.5C 144.174,52.4054 143.007,52.7388 141.5,51.5C 142.372,49.5504 143.039,47.5504 143.5,45.5 Z"/></g>
<g><path style="opacity:0.529" fill="#f14d51" d="M 11.5,45.5 C 13.045,46.2297 13.8784,47.563 14,49.5C 14.2189,48.062 14.7189,46.7287 15.5,45.5C 16.7691,47.6948 16.7691,49.8615 15.5,52C 14.2161,52.6838 13.0495,52.5171 12,51.5C 11.5045,49.5273 11.3379,47.5273 11.5,45.5 Z"/></g>
<g><path style="opacity:0.258" fill="#ef4345" d="M 99.5,45.5 C 100.5,45.5 101.5,45.5 102.5,45.5C 102.674,47.861 103.007,50.1944 103.5,52.5C 102.167,52.5 100.833,52.5 99.5,52.5C 99.5,50.1667 99.5,47.8333 99.5,45.5 Z"/></g>
<g><path style="opacity:0.525" fill="#f46769" d="M 119.5,45.5 C 120.675,45.281 121.675,45.6143 122.5,46.5C 123.167,48.1667 123.833,49.8333 124.5,51.5C 122.993,52.7388 121.826,52.4054 121,50.5C 120.692,51.3081 120.192,51.9747 119.5,52.5C 118.637,50.2287 118.637,47.8954 119.5,45.5 Z"/></g>
<g><path style="opacity:0.133" fill="#f26064" d="M 89.5,45.5 C 90.4959,45.4142 91.3292,45.7476 92,46.5C 93.2053,48.5342 93.372,50.5342 92.5,52.5C 91.8076,51.9747 91.3076,51.3081 91,50.5C 90.1739,52.4054 89.0072,52.7388 87.5,51.5C 88.3721,49.5504 89.0388,47.5504 89.5,45.5 Z"/></g>
<g><path style="opacity:0.416" fill="#f25e61" d="M 95.5,63.5 C 94.8333,63.5 94.1667,63.5 93.5,63.5C 93.179,62.1825 92.8457,60.8492 92.5,59.5C 92.4342,57.7336 93.2676,56.7336 95,56.5C 96.5,56.6667 97.3333,57.5 97.5,59C 96.9561,60.585 96.2894,62.085 95.5,63.5 Z"/></g>
<g><path style="opacity:0.286" fill="#f15257" d="M 34.5,63.5 C 33.1667,63.5 31.8333,63.5 30.5,63.5C 30.5,61.1667 30.5,58.8333 30.5,56.5C 35.4096,56.5764 36.7429,58.9098 34.5,63.5 Z"/></g>
<g><path style="opacity:0.397" fill="#f25e60" d="M 105.5,63.5 C 104.833,63.5 104.167,63.5 103.5,63.5C 104.735,61.2271 104.402,59.3938 102.5,58C 103.905,56.7308 105.571,56.2308 107.5,56.5C 107.122,58.921 106.455,61.2543 105.5,63.5 Z"/></g>
<g><path style="opacity:0.38" fill="#f04c50" d="M 65.5,63.5 C 64.1667,63.5 62.8333,63.5 61.5,63.5C 61.5,61.1667 61.5,58.8333 61.5,56.5C 66.4096,56.5764 67.7429,58.9098 65.5,63.5 Z"/></g>
<g><path style="opacity:0.214" fill="#ef3e40" d="M 45.5,63.5 C 44.1667,63.5 42.8333,63.5 41.5,63.5C 41.5,61.1667 41.5,58.8333 41.5,56.5C 42.8333,56.5 44.1667,56.5 45.5,56.5C 45.5,58.8333 45.5,61.1667 45.5,63.5 Z"/></g>
<g><path style="opacity:0.302" fill="#ef3c3f" d="M 76.5,63.5 C 75.1667,63.5 73.8333,63.5 72.5,63.5C 72.5,61.1667 72.5,58.8333 72.5,56.5C 73.8333,56.5 75.1667,56.5 76.5,56.5C 76.5,58.8333 76.5,61.1667 76.5,63.5 Z"/></g>
<g><path style="opacity:0.455" fill="#f04849" d="M 87.5,63.5 C 86.5,63.5 85.5,63.5 84.5,63.5C 84.5,61.1667 84.5,58.8333 84.5,56.5C 85.5,56.5 86.5,56.5 87.5,56.5C 87.5,58.8333 87.5,61.1667 87.5,63.5 Z"/></g>
<g><path style="opacity:0.437" fill="#f35e61" d="M 55.5,63.5 C 54.1667,63.5 52.8333,63.5 51.5,63.5C 51.2454,62.0639 50.9121,60.5639 50.5,59C 51.5224,56.6837 53.0224,56.1837 55,57.5C 55.4955,59.4727 55.6621,61.4727 55.5,63.5 Z"/></g>
<g><path style="opacity:0.324" fill="#f1585c" d="M 116.5,63.5 C 115.167,63.5 113.833,63.5 112.5,63.5C 112.033,60.6205 112.866,58.2871 115,56.5C 115.5,56.8333 116,57.1667 116.5,57.5C 116.08,59.326 116.08,61.326 116.5,63.5 Z"/></g>
</svg>
